<svg width="318" height="140" viewBox="0 0 318 140" fill="none" xmlns="http://www.w3.org/2000/svg">
<path d="M22.08 38.608V78.928C22.08 82.96 23.072 86.064 25.056 88.24C27.04 90.416 29.952 91.504 33.792 91.504C37.632 91.504 40.576 90.416 42.624 88.24C44.672 86.064 45.696 82.96 45.696 78.928V38.608H62.112V78.832C62.112 84.848 60.832 89.936 58.272 94.096C55.712 98.256 52.256 101.392 47.904 103.504C43.616 105.616 38.816 106.672 33.504 106.672C28.192 106.672 23.424 105.648 19.2 103.6C15.04 101.488 11.744 98.352 9.312 94.192C6.88 89.968 5.664 84.848 5.664 78.832V38.608H22.08ZM90.0555 60.016C91.6555 57.52 93.8635 55.504 96.6795 53.968C99.4955 52.432 102.792 51.664 106.568 51.664C110.984 51.664 114.984 52.784 118.568 55.024C122.152 57.264 124.968 60.464 127.016 64.624C129.128 68.784 130.184 73.616 130.184 79.12C130.184 84.624 129.128 89.488 127.016 93.712C124.968 97.872 122.152 101.104 118.568 103.408C114.984 105.648 110.984 106.768 106.568 106.768C102.856 106.768 99.5595 106 96.6795 104.464C93.8635 102.928 91.6555 100.944 90.0555 98.512V131.536H73.6395V52.432H90.0555V60.016ZM113.48 79.12C113.48 75.024 112.328 71.824 110.024 69.52C107.784 67.152 105 65.968 101.672 65.968C98.4075 65.968 95.6235 67.152 93.3195 69.52C91.0795 71.888 89.9595 75.12 89.9595 79.216C89.9595 83.312 91.0795 86.544 93.3195 88.912C95.6235 91.28 98.4075 92.464 101.672 92.464C104.936 92.464 107.72 91.28 110.024 88.912C112.328 86.48 113.48 83.216 113.48 79.12ZM155.212 60.016C156.812 57.52 159.02 55.504 161.836 53.968C164.652 52.432 167.948 51.664 171.724 51.664C176.14 51.664 180.14 52.784 183.724 55.024C187.308 57.264 190.124 60.464 192.172 64.624C194.284 68.784 195.34 73.616 195.34 79.12C195.34 84.624 194.284 89.488 192.172 93.712C190.124 97.872 187.308 101.104 183.724 103.408C180.14 105.648 176.14 106.768 171.724 106.768C168.012 106.768 164.716 106 161.836 104.464C159.02 102.928 156.812 100.944 155.212 98.512V131.536H138.796V52.432H155.212V60.016ZM178.636 79.12C178.636 75.024 177.484 71.824 175.18 69.52C172.94 67.152 170.156 65.968 166.828 65.968C163.564 65.968 160.78 67.152 158.476 69.52C156.236 71.888 155.116 75.12 155.116 79.216C155.116 83.312 156.236 86.544 158.476 88.912C160.78 91.28 163.564 92.464 166.828 92.464C170.092 92.464 172.876 91.28 175.18 88.912C177.484 86.48 178.636 83.216 178.636 79.12ZM258.672 52.432L225.072 131.44H207.408L219.696 104.176L197.904 52.432H216.24L228.624 85.936L240.912 52.432H258.672ZM315.104 78.352C315.104 79.888 315.008 81.488 314.816 83.152H277.664C277.92 86.48 278.976 89.04 280.832 90.832C282.752 92.56 285.088 93.424 287.84 93.424C291.936 93.424 294.784 91.696 296.384 88.24H313.856C312.96 91.76 311.328 94.928 308.96 97.744C306.656 100.56 303.744 102.768 300.224 104.368C296.704 105.968 292.768 106.768 288.416 106.768C283.168 106.768 278.496 105.648 274.4 103.408C270.304 101.168 267.104 97.968 264.8 93.808C262.496 89.648 261.344 84.784 261.344 79.216C261.344 73.648 262.464 68.784 264.704 64.624C267.008 60.464 270.208 57.264 274.304 55.024C278.4 52.784 283.104 51.664 288.416 51.664C293.6 51.664 298.208 52.752 302.24 54.928C306.272 57.104 309.408 60.208 311.648 64.24C313.952 68.272 315.104 72.976 315.104 78.352ZM298.304 74.032C298.304 71.216 297.344 68.976 295.424 67.312C293.504 65.648 291.104 64.816 288.224 64.816C285.472 64.816 283.136 65.616 281.216 67.216C279.36 68.816 278.208 71.088 277.76 74.032H298.304Z" fill="white"/>
<circle cx="14" cy="14" r="14" fill="white"/>
<circle cx="54.5" cy="26.5" r="7.5" fill="white"/>
<circle cx="62" cy="18" r="4" fill="white"/>
</svg>
